<svg width="25" height="28" fill="none" xmlns="http://www.w3.org/2000/svg">
  <path fill-rule="evenodd" clip-rule="evenodd" d="M13.6 2.2c1-1.2 2.6-2.1 4-2.2a6 6 0 0 1-1.2 4.4 5.4 5.4 0 0 1-4.2 2.1c-.3-1.5.4-3.2 1.4-4.3ZM18 6.5c2 0 4 1 5.4 2.9-4.7 2.6-4 9.3.9 11.1-.7 1.5-1 2.1-1.9 3.4-1.2 1.8-2.8 4-5 4.1-.8 0-1.3-.3-2-.5a6 6 0 0 0-2.8-.7c-1.3 0-2 .4-2.8.7-.6.3-1.2.5-2 .5-2.1 0-3.7-2-4.9-3.8-3.3-5-3.7-11-1.6-14.1a7.4 7.4 0 0 1 5.9-3.6c1.2 0 2 .4 3 .7.8.3 1.6.5 2.4.5a6 6 0 0 0 2.2-.5c.9-.3 1.8-.7 3.2-.7Z" fill="#495567"/>
</svg>
