<svg width="120" height="24" fill="none" xmlns="http://www.w3.org/2000/svg">
  <g fill="#FCB72B">
    <path d="M22.7 0H1.3C.6 0 0 .6 0 1.3v21.4c0 .7.6 1.3 1.3 1.3h11.5v-9.3H9.7v-3.6h3.1V8.4c0-3 2-4.8 4.7-4.8l2.8.2V7h-2c-1.4 0-1.7.7-1.7 1.8V11H20l-.4 3.6h-3.1V24h6c.8 0 1.4-.6 1.4-1.3V1.3c0-.7-.6-1.3-1.3-1.3Z"/>
    <path fill-rule="evenodd" clip-rule="evenodd" d="M108 0h-5c-4.3.3-6.7 2.7-7 7a84.3 84.3 0 0 0 0 10c.3 4.3 2.7 6.7 7 7a85.6 85.6 0 0 0 10 0c4.3-.3 6.7-2.7 7-7a84.3 84.3 0 0 0 0-10c-.3-4.3-2.7-6.7-7-7h-5Zm0 2.2h4.8c3.3.2 4.8 1.7 5 5a83.4 83.4 0 0 1 0 9.7c-.2 3.2-1.7 4.7-5 4.9a83 83 0 0 1-9.6 0c-3.3-.2-4.8-1.7-5-5a83 83 0 0 1 0-9.6c.2-3.3 1.7-4.8 5-5h4.8Zm-6.2 9.8a6.2 6.2 0 1 1 12.4 0 6.2 6.2 0 0 1-12.4 0Zm6.2 4a4 4 0 1 1 0-8 4 4 0 0 1 0 8Zm5-10.4a1.4 1.4 0 1 1 2.8 0 1.4 1.4 0 0 1-2.8 0Z"/>
    <path d="M72 4.6c-.9.3-1.8.6-2.8.7a5 5 0 0 0 2.1-2.7c-1 .6-2 1-3 1.2a5 5 0 0 0-8.5 4.5A14 14 0 0 1 49.7 3a5 5 0 0 0 1.5 6.6A4 4 0 0 1 49 9a5 5 0 0 0 4 4.9 5 5 0 0 1-2.3 0 5 5 0 0 0 4.6 3.5 9.9 9.9 0 0 1-7.3 2A14 14 0 0 0 69.5 7.1 10 10 0 0 0 72 4.6Z"/>
  </g>
</svg>
