<svg width="109" height="29" fill="none" xmlns="http://www.w3.org/2000/svg">
  <path fill-rule="evenodd" clip-rule="evenodd" d="M107.7 23.2V28h-8.4a3 3 0 0 1-3-3.1v-12h-6V8.3h6V0h5v8.2h7.1V13h-7.1v9c0 .8.3 1.2 1 1.2h5.4Zm-98 5.4c2.6 0 4.7-.6 6.1-1.8a5.8 5.8 0 0 0 2.2-4.7v-.3a5 5 0 0 0-2-4.1 10 10 0 0 0-5-1.9c-1.7-.1-2.9-.4-3.6-.7-.6-.2-1-.7-1-1.3 0-.5.3-.9.7-1.2.4-.3 1-.4 1.9-.4 1 0 1.7.2 2.3.6.6.4 1 1 1.2 1.7l4.6-1.9c-.2-.5-.5-1.1-1-1.7a7 7 0 0 0-1.5-1.6c-.6-.5-1.4-1-2.3-1.2a10.3 10.3 0 0 0-8.5 1c-.7.6-1.3 1.2-1.7 2-.4.7-.6 1.6-.6 2.6v.2c0 2 .6 3.3 2 4.3 1.3 1 3 1.6 5.3 1.8.8 0 1.5.1 2 .3.6.1 1 .3 1.4.5l.6.6.2.8c0 .4-.2.8-.7 1.2-.5.4-1.3.6-2.6.6-1.4 0-2.4-.3-3.1-1a4.5 4.5 0 0 1-1.4-2.2L.6 22.3A7.4 7.4 0 0 0 3 26.5 9 9 0 0 0 5.8 28c1 .4 2.4.6 4 .6Zm22.5 0c2.8 0 5-.8 6.8-2.2a9.6 9.6 0 0 0 3.2-5.7l-5-1.2a5.5 5.5 0 0 1-1.6 3.1c-.8.8-2 1.2-3.5 1.2a6 6 0 0 1-2-.4 4.7 4.7 0 0 1-2.9-2.7c-.2-.7-.4-1.5-.4-2.3V18c0-.9.2-1.7.4-2.4.3-.7.7-1.3 1.2-1.8a5 5 0 0 1 3.7-1.5 4.8 4.8 0 0 1 5.1 4.3l5-1.3a9.5 9.5 0 0 0-3.3-5.6 9.8 9.8 0 0 0-6.7-2.2c-1.5 0-2.8.2-4 .7a9.7 9.7 0 0 0-6.4 9.7v.5c0 1.6.2 3 .8 4.3a9 9 0 0 0 5.5 5c1.2.5 2.6.8 4 .8Zm26.3-.7a11.3 11.3 0 0 1-11-2c-1-.9-1.8-2-2.4-3.2a12 12 0 0 1-.8-4.4v-.5a9.5 9.5 0 0 1 6.4-9.6 11.3 11.3 0 0 1 11.1 2 10 10 0 0 1 3.1 7.6v.5c0 1.7-.2 3.1-.8 4.4a9.3 9.3 0 0 1-5.6 5.2Zm-3.9-4.1c-.7 0-1.4-.2-2-.4a5 5 0 0 1-3.3-5v-.7c0-.8.2-1.6.5-2.2a5 5 0 0 1 2.8-2.7 5.8 5.8 0 0 1 5.7 1c.5.5 1 1 1.2 1.7.3.6.4 1.4.4 2.2v.8c0 .8-.1 1.5-.4 2.2a5 5 0 0 1-2.8 2.7c-.7.2-1.4.4-2 .4Zm26.6 4a11.3 11.3 0 0 1-11-1.9c-1-.9-1.8-2-2.4-3.2a12 12 0 0 1-.8-4.4v-.5a9.5 9.5 0 0 1 6.4-9.6 11.3 11.3 0 0 1 11.1 2 10 10 0 0 1 3.1 7.6v.5c0 1.7-.2 3.1-.8 4.4a9.3 9.3 0 0 1-5.6 5.2Zm-3.9-4c-.7 0-1.4-.2-2-.4a5 5 0 0 1-3.3-5v-.7c0-.8.2-1.6.5-2.2a5 5 0 0 1 2.8-2.7 5.8 5.8 0 0 1 5.7 1 5 5 0 0 1 1.6 3.9v.8c0 .8-.1 1.5-.4 2.2a5 5 0 0 1-2.8 2.7c-.7.2-1.4.4-2 .4Z" fill="#fff"/>
</svg>
